<svg width="32" height="32" viewBox="0 0 32 32" fill="none" xmlns="http://www.w3.org/2000/svg">
  <!-- Pixel art S from specs.md logo -->
  <g stroke="#3D2F2F" stroke-width="0.5">
    <!-- Top row -->
    <rect x="8" y="2" width="4" height="4" fill="#CD6B4D"/>
    <rect x="12" y="2" width="4" height="4" fill="#CD6B4D"/>
    <rect x="16" y="2" width="4" height="4" fill="#CD6B4D"/>
    <rect x="20" y="2" width="4" height="4" fill="#CD6B4D"/>
    <rect x="24" y="2" width="4" height="4" fill="#CD6B4D"/>

    <!-- Second row -->
    <rect x="4" y="6" width="4" height="4" fill="#CD6B4D"/>
    <rect x="8" y="6" width="4" height="4" fill="#CD6B4D"/>

    <!-- Third row (left side) -->
    <rect x="4" y="10" width="4" height="4" fill="#CD6B4D"/>
    <rect x="8" y="10" width="4" height="4" fill="#CD6B4D"/>

    <!-- Middle row -->
    <rect x="8" y="14" width="4" height="4" fill="#CD6B4D"/>
    <rect x="12" y="14" width="4" height="4" fill="#CD6B4D"/>
    <rect x="16" y="14" width="4" height="4" fill="#CD6B4D"/>
    <rect x="20" y="14" width="4" height="4" fill="#CD6B4D"/>

    <!-- Fifth row (right side) -->
    <rect x="20" y="18" width="4" height="4" fill="#CD6B4D"/>
    <rect x="24" y="18" width="4" height="4" fill="#CD6B4D"/>

    <!-- Sixth row (right side) -->
    <rect x="20" y="22" width="4" height="4" fill="#CD6B4D"/>
    <rect x="24" y="22" width="4" height="4" fill="#CD6B4D"/>

    <!-- Bottom row -->
    <rect x="4" y="26" width="4" height="4" fill="#CD6B4D"/>
    <rect x="8" y="26" width="4" height="4" fill="#CD6B4D"/>
    <rect x="12" y="26" width="4" height="4" fill="#CD6B4D"/>
    <rect x="16" y="26" width="4" height="4" fill="#CD6B4D"/>
    <rect x="20" y="26" width="4" height="4" fill="#CD6B4D"/>
  </g>
</svg>
